<svg width="34" height="34" viewBox="0 0 34 34" fill="none" xmlns="http://www.w3.org/2000/svg">
<path d="M17.25 32.5C25.6723 32.5 32.5 25.6723 32.5 17.25C32.5 8.82766 25.6723 2 17.25 2C8.82766 2 2 8.82766 2 17.25C2 25.6723 8.82766 32.5 17.25 32.5Z" stroke="rgba(212, 120, 222, 1)" stroke-width="2.5"/>
<path d="M25.516 12.9345C25.6415 14.2391 25.1694 15.5472 24.2033 16.5712L18.4214 22.7177L10.4574 23.4842L9.78711 16.5199L15.5792 10.3806C16.5452 9.3566 17.926 8.70071 19.4178 8.55713L24.6355 8.68206L25.516 12.9345Z" stroke="rgba(212, 120, 222, 1)" stroke-width="2.5" stroke-linecap="round" stroke-linejoin="round"/>
<path d="M20.75 12.75L5.75 27.75" stroke="rgba(212, 120, 222, 1)" stroke-width="2.5" stroke-linecap="round" stroke-linejoin="round"/>
<path d="M21.75 18.75H14.75" stroke="rgba(212, 120, 222, 1)" stroke-width="2.5" stroke-linecap="round" stroke-linejoin="round"/>
<path d="M20.75 12.75H13.75" stroke="rgba(212, 120, 222, 1)" stroke-width="2.5" stroke-linecap="round" stroke-linejoin="round"/>
</svg>
